#define charging_width 5
#define charging_height 5
static unsigned char charging_bits[] = {
   0x0a, 0x1f, 0x1f, 0x0e, 0x04 };
