#define smeter_width 66
#define smeter_height 10
static unsigned char smeter_bits[] = {
   0x03, 0x07, 0x07, 0x07, 0x07, 0x00, 0x00, 0x00, 0x00, 0x02, 0x04, 0x01,
   0x04, 0x05, 0x00, 0x00, 0x00, 0x00, 0x72, 0x77, 0x77, 0x74, 0x07, 0x00,
   0x00, 0x00, 0x00, 0x02, 0x04, 0x04, 0x04, 0x04, 0x00, 0x00, 0x00, 0x00,
   0x07, 0x07, 0x07, 0x04, 0x04, 0x00, 0x00, 0x00, 0x00, 0x00, 0x00, 0x00,
   0x00, 0x00, 0x00, 0x00, 0x00, 0x00, 0x22, 0x22, 0x22, 0x22, 0x42, 0x92,
   0x24, 0x49, 0x02, 0x22, 0x22, 0x22, 0x22, 0x42, 0x92, 0x24, 0x49, 0x02,
   0x22, 0x22, 0x22, 0x22, 0x42, 0x92, 0x24, 0x49, 0x02, 0x22, 0x22, 0x22,
   0x22, 0x42, 0x92, 0x24, 0x49, 0x02 };
